<?xml version="1.0" encoding="UTF-8"?><svg id="Layer_1" xmlns="http://www.w3.org/2000/svg" viewBox="0 0 145.67 275.6"><path d="M129.67,152.17c14.25-8.99,15.3-22.15,14.58-29.41-1.02-10.3-6.57-20.21-13.42-24.84,.73-.23,1.46-.46,2.16-.68,1.33-.42,2.6-.81,3.79-1.2,9.22-2.95,7.12-10.51,5.73-15.52-2.03-7.31-8.49-6.34-13.65-5.56-18.38,2.47-42.82,8.85-57.16,16.54-.48-2.63-.87-5.22-1.19-7.75h.07c-.93-17.91,18.05-23.93,28.25-27.16,1.71-.54,3.19-1.01,4.29-1.45l.26-.13c7.9-4.58,7.85-14.17,5.39-20.99-.66-1.82-3.05-7.71-6.72-7.1l-.2,.04c-.25,.07-.6,.16-1.03,.27-11.92,3.05-21.27,6.87-27.92,11.39,2.11-8.79,4.85-15.85,7.16-20.88,2.31-4.18,3.01-7.18,2.25-9.72-.87-2.93-3.57-4.57-6.05-5.88C72.26,.05,69.13-.49,66.41,.44c-2.5,.86-4.48,2.94-6.06,6.35-17.1,27.18-16.51,64.93-13.45,84-4.39-1.28-8.79-1.67-13.1-1.12-9.4,1.18-18.05,6.79-25.01,16.22C.94,116.51-1.78,126.94,1.14,135.25c1.97,5.6,6.37,9.73,12.48,11.78-7.47,20.98-7.64,40.11-.5,58.41,7.44,19.06,22.87,37.39,47.19,56.04,12.34,9.46,23.16,14.13,32.87,14.13,2.48,0,4.89-.31,7.23-.92,17.57-4.57,26.75-25.85,33.45-41.39,.92-2.13,1.8-4.18,2.66-6.09l.04-.11c16.33-42.59,8.6-61.46-6.9-74.93Zm10.6-29.01c.65,6.5-.34,18.45-13.88,26.33-4.82-3.75-10.21-7.14-15.76-10.63l-.42-.27c-8.25-5.19-12.29-10.74-12.01-16.48,.38-7.67,8.54-14.54,13.6-17.06,4.04-2.02,8.93-3.81,13.68-5.39,7.71,2.56,13.87,14.16,14.79,23.51ZM99.41,36.51c.46-2.46,1.59-4.23,3.36-5.27,1.2,1.28,3.21,5.35,3.43,10.07,.13,2.89-.39,6.66-3.36,9.22-2.82-4.29-4.21-9.81-3.43-14.01Zm-2.92-3.93c-.45,.98-.8,2.04-1.01,3.2-.95,5.08,.54,11.42,3.74,16.5-.5,.16-1.03,.33-1.59,.51-7.81,2.47-21.94,6.95-28.08,17.86-.22-9.62,.65-18.35,2.08-26,5.35-4.71,13.69-8.76,24.87-12.07ZM63.81,8.81l.13-.24c1.11-2.43,2.34-3.85,3.77-4.35,1.59-.54,3.78-.06,6.7,1.47,2.23,1.18,3.69,2.18,4.08,3.48,.42,1.4-.22,3.6-1.95,6.71l-.07,.13c-2.82,6.1-6.25,15.15-8.52,26.58-.05,.05-.12,.1-.17,.16l.12,.12c-2.71,13.79-3.69,31.04,.15,50.78-2.59,1.66-4.67,3.37-6.1,5.1-3.51-2.72-7.09-4.86-10.71-6.4-3.76-20.17-3.45-58.16,12.58-83.54ZM4.92,133.93c-2.47-7.02,.05-16.14,7.09-25.67,6.3-8.52,14.01-13.58,22.3-14.62,8.39-1.06,17.26,1.95,25.71,8.67-.06,.21-.13,.43-.16,.64-1.5,9.75-8.74,13.22-15.75,16.57-5.85,2.8-11.37,5.45-12.72,11.46-1.89,7.57-9.21,12.34-15.19,12.59h-.17c-5.5-1.5-9.44-4.92-11.1-9.64Zm127.94,91.69c-.86,1.91-1.75,3.96-2.67,6.09-6.73,15.61-15.11,35.03-30.79,39.11-10.08,2.62-22.41-1.59-36.66-12.51C16.58,222.9,2.65,188.66,17.71,147.46c3.51-.44,7.3-2.01,10.51-4.61,15.62,11.62,18.21,26.96,20.12,43.32,.22,10.41-2.79,15.3-5.71,20.02-2.9,4.69-5.91,9.54-5.46,19.37l2-.09c-.42-9.21,2.29-13.59,5.16-18.23,1.99-3.22,4.02-6.52,5.14-11.43,2.29,17.93,6.74,37.4,28.8,54.01l1.2-1.6c-24.11-18.16-26.49-39.05-28.8-59.24-.11-.98-.22-1.96-.34-2.94,0-.08,0-.15,0-.23h-.02c-.7-5.95-1.49-11.76-2.94-17.34,4.18,5.53,8.29,7.67,12.02,9.6,6.08,3.14,10.88,5.62,14.08,21.77l1.96-.39c-3.39-17.1-8.83-19.91-15.13-23.16-4.81-2.48-9.79-5.05-14.94-14.73l-.19,.1c-2.91-7.39-7.55-14.22-15.44-20.18,2.54-2.49,4.57-5.7,5.54-9.58,.94-4.17,5.4-6.3,10.56-8.78,7.19-3.45,16.15-7.73,17.97-19.57,1.12-7.26,31.6-20.05,65.62-24.63,6.71-1.01,8.35-.53,9.24,2.67,1.75,6.3,1.96,9.02-3.09,10.64-1.19,.38-2.45,.77-3.77,1.19-6.79,2.12-15.24,4.77-21.79,8.04-4.22,2.11-15.29,9.9-15.8,20.45-.36,7.3,4.31,14.05,13.87,20.06l.42,.27c1.18,.74,2.33,1.47,3.48,2.19,7.18,7.45,10.15,13.99,10.42,20.07l-.13-.03c-.83,4.26-2.41,7.05-4.82,8.53-4.21,2.59-10.41,.85-16.39-.83-.65-.18-1.3-.36-1.94-.54l-.53,1.93c.63,.17,1.27,.35,1.92,.53,3.78,1.06,7.86,2.21,11.6,2.21,2.31,0,4.49-.44,6.38-1.6,.62-.38,1.18-.84,1.71-1.35-5.52,7.89-9.46,7.52-14.33,7.05-4.94-.47-10.54-1.01-18.57,6.45l1.36,1.47c7.37-6.85,12.28-6.38,17.02-5.93,4.23,.4,8.29,.78,13.1-4.16-2.54,4.75-6.13,9.43-9.88,14.31-9.81,12.77-20.94,27.24-16.32,47.58l1.95-.44c-4.41-19.42,5.94-32.89,15.95-45.92,.33-.43,.66-.86,.99-1.29-3.34,10.22-.32,14,4.19,17.86,3.18,2.72,6.18,5.3,4.54,13.05l1.96,.42c1.89-8.92-1.87-12.14-5.2-14.98-4.19-3.59-8.14-6.97-.75-22.71h0c8.02-11.41,12.83-23.04,1.73-37.79,8.83,5.96,16.12,12.12,20.23,20.96,6.09,13.1,4.4,31-5.31,56.34Z"/><path d="M44.46,102.78l.06-2c-9.58-.28-18.84,.5-26.73,12.8l1.68,1.08c7.33-11.44,15.66-12.15,24.99-11.88Z"/><path d="M122.66,108.63c6.34,6.83,9.02,14.67,7.97,23.3l1.98,.24c1.13-9.24-1.73-17.62-8.49-24.9l-1.46,1.36Z"/></svg>