<?xml version="1.0" encoding="UTF-8"?><svg id="Layer_1" xmlns="http://www.w3.org/2000/svg" viewBox="0 0 188.45 231.77"><path d="M182.03,105.27c-2.47-2.55-5.28-5.44-7.21-9.55-19.97-41.49-33.18-51.14-45.95-60.48-8.34-6.1-16.97-12.41-27.67-27.95l-.08-.11c-6.12-7.71-12.5-8.97-25.36-4.95-8.99,3.24-16.38,2.81-22.91,2.44-5.35-.31-10.41-.6-15.17,1.31l-.66,.26c-1.74,.43-3.56,.83-5.34,1.2-8.96,1.89-19.08,4.04-18.07,13.24-.41,.78-1.05,1.8-1.79,2.97-3.8,6.06-10.16,16.18-2.28,21.97,1.9,1.76,4.2,3.47,5.1,4.12,.22,1.75,.78,3.4,1.93,4.77,1.61,1.91,4.13,2.94,7.48,3.09,.61,1.62,1.51,2.96,2.68,3.97,1.44,1.24,3.23,1.93,5.21,2.03,.3,8.41,2.66,10.68,10.19,10.68,2.53,0,4.59-.8,6.14-2.37,3.24-3.3,3.2-9.08,3.13-12.99,1.53-1,2.36-2.34,2.83-3.44,.57,.11,1.18,.2,1.86,.2,1.92,0,4.23-.57,6.79-2.32l.12-.09c1.23-.99,2.07-2.44,2.54-4.52,2.55-.32,7.1-.94,11.26-1.74l.17-.04c.24-.07,.46-.16,.69-.23,4.23,1.61,7.52,4.31,15.91,24.53,4.39,10.77,5.38,19.07,6.33,27.09,.56,4.72,1.12,9.34,2.36,14.19-9.53,.7-16.2-1.5-23.24-3.82-8.44-2.78-17.17-5.66-31.1-3.74-17.45,2.57-26.95,15.23-35.34,26.4-4.18,5.57-8.13,10.82-12.58,14.13l2.38,3.21c4.92-3.66,9.04-9.14,13.4-14.94,8.31-11.07,16.9-22.52,32.7-24.84,13-1.79,21.28,.94,29.29,3.58,7.31,2.41,14.87,4.89,25.65,3.94,1.85,5.55,4.78,11.5,9.79,18.32l3.22-2.37c-10.09-13.74-11.23-23.38-12.56-34.53-.94-7.9-2-16.85-6.6-28.14-6.72-16.19-10.52-22.24-15.16-25.22,5.59-3.86,8.55-10.62,10.7-17.07l-3.79-1.26c-2.39,7.17-5.81,14.78-13.07,16.91-3.52,.68-7.38,1.22-9.96,1.56,.04-1.32,0-2.79-.1-4.44-.39-5.97-.58-11.41-.58-11.46l-4,.14c0,.05,.2,5.54,.59,11.57,.43,6.59-.49,8.88-1.36,9.63-2.54,1.71-4.99,2.03-7.09,.92-1.87-.99-3.22-3.09-3.22-5,0-4.76-.18-8.49-1.2-16.85-.82-5.36,.83-6.13,4.11-7.68,.42-.2,.84-.4,1.27-.61l-1.79-3.58c-.4,.2-.8,.39-1.19,.57-3.58,1.69-7.64,3.6-6.37,11.84,.99,8.15,1.16,11.61,1.16,16.31,0,3.03,1.7,6.07,4.32,7.9-.49,1.18-1.49,2.35-4.38,2.45-2.5,.12-4.34-.4-5.64-1.6-1.64-1.51-2.53-4.28-2.65-8.22-.24-7.99-.71-15.2-1.38-21.45-.44-4.03,.91-4.56,3.86-5.71,.98-.38,1.99-.78,2.99-1.36l-2-3.46c-.74,.43-1.56,.75-2.44,1.09-3.02,1.18-7.15,2.79-6.38,9.87,.66,6.14,1.12,13.25,1.36,21.14,.16,5.12,1.44,8.73,3.93,11.03,.07,.06,.14,.12,.21,.18-1.14,.99-2.21,1.38-4.42,1.64-1.76,.27-3.2-.07-4.27-.99-1.45-1.25-2.25-3.68-2.25-6.83,0-2.02,.15-4.78,.32-7.97,.41-7.7,.93-17.28-.34-23.09-.48-5.57,3.81-7.69,10.91-10.49l.24-.1c.13-.03,.27-.06,.4-.09v-.06s.54-.22,.54-.22c3.93-1.57,8.35-1.32,13.45-1.03,6.91,.4,14.74,.85,24.41-2.64,12.34-3.86,16.45-2.01,20.91,3.59,11.06,16.06,19.96,22.56,28.56,28.85,12.95,9.46,25.17,18.4,44.7,58.97,2.21,4.7,5.26,7.84,7.95,10.61,5.2,5.35,8.06,8.31,1.62,18.35-1.76,2.34-4.18,4.89-6.31,6.97,.39-3.4,.21-6.15-.32-7.96l-3.84,1.13c1.11,3.75,.17,16.11-9.78,30.42-13.86,19.94-45.49,44.71-117.44,49.98-.33-.68-.66-1.32-.98-1.95-1.61-3.13-2.88-5.6-2.67-9.76l-3.99-.2c-.26,5.23,1.38,8.41,3.11,11.79,2.49,4.83,5.3,10.31,3.95,24.56l3.98,.38c.97-10.23-.13-16.43-1.74-20.94,72.56-5.59,104.8-31.06,119.07-51.58,4.83-6.95,7.73-13.55,9.3-19.17,1.06-.93,7.12-6.29,10.9-11.33l.08-.12c8.21-12.76,3.22-17.91-2.07-23.36ZM15.15,41.67c-.16,.99-.32,2.04-.44,3.11-.83-.66-1.73-1.41-2.53-2.16l-.2-.17c-4.46-3.2-1.33-9.35,2.8-15.99,.82,4.54,.82,7.25,.82,11.34,0,1-.22,2.39-.45,3.86Zm7.95-20.51l.04,.25c1.18,5.26,.68,14.62,.28,22.13-.17,3.25-.33,6.06-.33,8.19,0,.63,.03,1.23,.08,1.81-1.63-.21-2.83-.74-3.54-1.59-1.73-2.05-1.07-6.27-.53-9.66,.26-1.63,.5-3.17,.5-4.48,0-5.5,0-8.83-1.98-17.23-.45-2.93-.02-5.1,7.68-7.43-1.62,2.02-2.54,4.59-2.21,8.01Zm18.61,38.73c1.15,.34,2.4,.52,3.77,.52,.28,0,.56,0,.85-.02,.38-.01,.73-.04,1.08-.08,.01,3.11-.18,6.98-2,8.82-.78,.79-1.85,1.17-3.29,1.17-4.8,0-6.06,0-6.21-7.08,2.36-.49,3.93-1.42,5.79-3.33Z"/><path d="M130.33,122.36c-10.09-13.93-15.17-24.36-16.47-33.83-.08-.55-.58-.93-1.13-.85-.55,.08-.93,.58-.85,1.13,1.35,9.82,6.54,20.53,16.83,34.74,.2,.27,.5,.41,.81,.41,.2,0,.41-.06,.59-.19,.45-.32,.55-.95,.22-1.4Z"/><path d="M153.81,147.03c.16,.09,.32,.13,.49,.13,.35,0,.69-.18,.87-.51,4.23-7.47,5.56-20.01,3.85-36.25-.06-.55-.56-.95-1.1-.89-.55,.06-.95,.55-.89,1.1,1.67,15.83,.42,27.96-3.6,35.06-.27,.48-.1,1.09,.38,1.36Z"/><path d="M81.3,174.06c2.24-1.14,4.35-2.22,6.72-3.17,.51-.21,.76-.79,.56-1.3-.21-.51-.79-.76-1.3-.56-2.46,.98-4.71,2.13-6.89,3.24-11.02,5.63-22.42,11.45-68.15,2.39-.54-.11-1.07,.25-1.17,.79-.11,.54,.24,1.07,.79,1.18,17.35,3.44,29.84,4.75,39.29,4.75,15.82,0,23.07-3.7,30.16-7.32Z"/></svg>