<?xml version="1.0" encoding="UTF-8"?><svg id="Layer_1" xmlns="http://www.w3.org/2000/svg" viewBox="0 0 214.88 276.84"><path d="M214.85,214.23c-.19-3.19-15.46-50.04-20.25-62.74-5.07-13.43-13.54-16.91-22.5-20.59-1.22-.5-2.45-1.01-3.7-1.55-5.06-2.2-8.14-2.92-10.86-3.55-2.85-.66-5.31-1.24-9.67-3.41l-1.94-.97-.14,.35c-5.15-.69-10.99-3.18-14.03-5.87,4.41-4.7,8.38-10.47,12.12-16.42,3.65-5.81,5.42-12.47,6.28-19.4,.76-.01,1.53-.19,2.26-.55,1.8-.89,3.07-2.72,3.17-4.56,.03-.5,.04-1,.05-1.54,.06-2.44,.13-5.48,1.68-11.8,1.11-4.52-.69-6.38-1.87-7.08-.72-.43-1.53-.63-2.37-.69,.56-.89,.99-2.13,.99-4.02,0-17.81-4.08-25.12-8.03-32.19l-.46-.82c-2.18-3.91-7.1-7.41-10.69-9.96-.75-.53-1.43-1.01-2-1.44-4.74-3.56-9.51-4.19-15.03-4.92l-.3-.04c-2.31-.3-4.73-.45-7.4-.45-6.62,0-13.54,.24-18.98,3.09l-.97,.5c-4.11,2.13-9.74,5.05-12.84,9.29-2.94,4.01-12.44,18.78-11.16,40.48,.02,.39,.12,.71,.24,1.01-.58,.11-1.15,.29-1.66,.6-1.17,.7-2.98,2.56-1.87,7.08,1.55,6.32,1.62,9.35,1.68,11.8,.01,.53,.03,1.04,.05,1.54,.09,1.67,1.61,2.87,2.65,3.5-.31,.41-.68,.82-1.1,1.28-2.05,2.25-4.85,5.33-4.3,13.07,.12,2.08,.04,3.86-.03,5.59-.2,4.43-.37,8.25,2.94,13.96,1.25,2.16,2.4,3.77,3.42,5.04-6.24,1.97-16.08,4.54-23.62,6.52-6.29,1.65-9.91,2.6-11.13,3.04-.47,.17-.89,.24-1.38,.31-3.28,.5-5.32,1.74-9.86,10.81l-.67,1.34c-5.41,10.81-9.33,18.62-14.18,38.46-2.68,10.97-4.63,17.36-5.79,21.17-1.07,3.51-1.61,5.28-1.61,6.93v.57l.75,1.21c2.38,3.82,3.52,5.64,7.67,7.03-.12,1.1-.23,2.23-.33,3.37-.71,8.27,1.71,14.45,4.05,20.43l.62,1.59c4.87,13.28,12.12,17.35,17.35,18.43,1.11,.23,2.23,.34,3.37,.34,4.46,0,9.01-1.74,12.75-4.86,0,.8,0,1.62,0,2.47,.03,6.46,.07,14.51-1.77,18l3.54,1.87c2.31-4.38,2.27-12.62,2.24-19.89-.01-2.32-.02-4.51,.05-6.38,13.01-13.65,19.81-32.31,27.59-53.75,4.32-11.89,9.22-25.38,15.72-39.38,1.83-3.95,3.53-8.63,5.18-13.16,.37-1.03,.74-2.04,1.1-3.03,2.81,1.06,8.38,2.91,15.6,4.38l.29,.04c19.92,1.11,28.79-11.52,32.22-18.79,3.66,1.66,6.09,2.23,8.65,2.82,2.68,.62,5.44,1.27,10.17,3.32,1.27,.55,2.53,1.07,3.77,1.58,8.49,3.49,15.83,6.5,20.28,18.31,5.65,14.97,19.65,58.86,20,61.57,.1,1.73,.14,2.31-3.28,3.96-.47,.23-1,.51-1.59,.82-4.64,2.47-13.26,7.05-30.61,3.64,0-.36,.02-.84,.04-1.23,.03-.57,.06-1.19,.06-1.87v-.9c.03-4.94,.12-19.97-2.14-27.45l-3.83,1.16c1.38,4.58,2.05,13.42,1.98,26.27v.92c0,.61-.03,1.17-.06,1.68-.08,1.79-.21,4.72,2.62,5.24,.27,9.32-.52,40.1-.8,47.52l4,.15c.27-7.22,1.03-36.57,.82-46.97,3.23,.48,6.18,.69,8.86,.69,5.67,0,10.12-.92,13.59-2.06,.6,17.37-1.66,27.67-3.34,35.25-1.14,5.17-1.97,8.9-1.26,12.52l3.93-.77c-.55-2.8,.2-6.2,1.24-10.89,1.67-7.55,4.18-18.91,3.38-37.66,1.35-.62,2.49-1.21,3.42-1.71,.54-.29,1.02-.54,1.45-.75,4.96-2.39,5.74-4.42,5.54-7.8ZM150.72,59.98c-.09-.72-.17-1.33-.17-2.62,0-.66,.07-.97,.3-1.25,1.22-.4,2.61-.45,3.57,.13,1.55,.93,1.37,3.17,.95,4.89-1.6,6.53-1.68,9.68-1.74,12.22-.01,.52-.02,1-.05,1.48-.06,1.12-.91,2.3-2.06,2.87-.28,.14-.68,.28-1.15,.33,.48-4.82,.56-9.74,.56-14.58,0-1.78-.12-2.68-.22-3.48Zm-10.23,37.36c-8.32,13.26-17.74,25.54-30.24,25.58-.5-.04-1.5-.15-2.46-.33,2.32-8.23,1.28-15.43,.52-20.66-.52-3.6,.54-7.13,1.77-11.21,.96-3.17,2.04-6.77,2.5-10.91,.33-3,1.31-11.95-4.52-13.26,.47-3.23,.38-5.97-1.34-7.34-.85-.67-1.93-.87-3.23-.62,0-.94-.14-1.76-.5-2.49-.58-1.18-1.63-2.01-3.2-2.49-3.53-.93-5.68,1.01-7.09,3.61-6.07-1.24-8.02,2.89-11.43,10.11l-.56,1.19c-.81,1.71-1.7,3.51-2.61,5.31-1.09-.33-2.64-.77-4.22-.79-.32-3.14-.48-6.33-.48-9.53,2.24-2.87,5.12-8.17,5.41-12.51,.09-1.43,1.82-2.86,3.49-4.26,2.77-2.31,6.22-5.17,3.48-9.37-.69-1.6-.75-4.59,.24-6.12,.41-.63,.91-.92,1.59-.92,.85,0,1.6,.45,2.75,1.13,2.75,1.63,7.33,4.34,19.61,4.16,12.27,.2,16.89-2.53,19.64-4.16,1.14-.68,1.9-1.13,2.75-1.13,.68,0,1.19,.29,1.59,.92,.98,1.53,.93,4.51,.24,6.12-2.73,4.19,.47,7.24,3.05,9.69,1.59,1.51,3.09,2.94,3.19,4.38,.32,4.89,3.55,10.33,6.49,12.63-.02,11.75-.6,23.93-6.45,33.26ZM80.61,15.25c2.55-3.48,7.7-6.16,11.46-8.11l.98-.51c4.63-2.43,11-2.63,17.12-2.63,2.5,0,4.75,.14,6.88,.42l.3,.04c5.17,.68,9.25,1.22,13.15,4.15,.6,.45,1.31,.95,2.09,1.51,3.28,2.33,7.78,5.53,9.51,8.64l.46,.82c3.87,6.92,7.52,13.46,7.52,30.24,0,1.72-.38,2.03-1.15,2.65-.95,.77-2.38,1.93-2.38,4.89,0,1.54,.1,2.35,.21,3.13,.03,.24,.06,.48,.09,.75-2.13-2.41-4.17-6.46-4.4-9.92-.15-2.21-2.01-3.98-3.81-5.69-2.85-2.71-4.51-4.52-2.72-7.21l.08-.14c.97-2.14,1.07-5.9-.35-8.1-.78-1.21-1.91-1.84-3.28-1.84s-2.44,.62-3.76,1.41c-2.73,1.62-6.86,4.06-18.55,3.88h0s-.04,0-.05,0c-.02,0-.04,0-.06,0h0c-11.69,.18-15.82-2.26-18.55-3.88-1.32-.79-2.37-1.41-3.76-1.41s-2.5,.64-3.28,1.84c-1.41,2.2-1.32,5.96-.35,8.1l.08,.14c1.74,2.6-.03,4.28-3.05,6.8-2,1.66-4.06,3.38-4.21,5.66-.18,2.76-1.7,6.24-3.32,8.95,.02-.65,.04-1.33,.04-2.17,0-3.7-2.26-4.65-3.36-5.11-1-20.05,7.71-33.61,10.42-37.31Zm-13.94,60.04c-.03-.48-.04-.97-.05-1.48-.06-2.54-.14-5.7-1.74-12.22-.42-1.72-.6-3.96,.95-4.89,.9-.54,2.17-.53,3.33-.2,.32,.19,.38,.43,.38,1.16,0,1.07-.03,1.87-.07,2.67-.04,.91-.07,1.84-.07,3.14,0,3.66,.21,7.32,.6,10.9-.71,.62-1.31,1.51-1.77,2.74-.82-.52-1.53-1.21-1.57-1.82ZM5.44,200.65c1.18-3.86,3.14-10.31,5.85-21.39,4.75-19.4,8.57-27.04,13.87-37.62l.67-1.34c4.11-8.22,5.4-8.42,6.89-8.65,.58-.09,1.3-.2,2.14-.51,1.11-.4,5.59-1.57,10.78-2.93,8.27-2.16,19.25-5.04,25.46-7.11,.87,.99,1.4,1.72,1.71,2.82l.04,.14c.95,3.38,1.42,5.08-1.47,10.25-24.58,43.88-33.86,53.28-40.64,60.14-.41,.41-.81,.82-1.21,1.23-2.75,.52-5.01,.78-6.99,1-5.3,.6-9.33,1.05-17.62,5.69,.16-.52,.33-1.09,.52-1.73Zm3.49,10.51c-1.89-.75-2.66-1.71-4.16-4.09,2.05-1.22,3.82-2.17,5.4-2.94-.45,1.97-.87,4.38-1.25,7.03Zm86.08-68.25c-1.62,4.45-3.29,9.05-5.05,12.84-6.58,14.16-11.5,27.73-15.85,39.7-8.05,22.16-15,41.3-28.82,54.47l-.07,.07c-3.95,4.16-9.42,6.12-14.3,5.12-6.07-1.25-11.05-6.75-14.41-15.93l-.64-1.64c-2.27-5.81-4.42-11.29-3.79-18.63,.67-7.81,1.86-14.12,2.76-16.72,2.92-.95,5.29-1.22,8.14-1.54,.71-.08,1.47-.17,2.26-.26-2.54,3.07-5.29,7.05-8.83,13.41l3.5,1.94c5.88-10.6,9.32-14.08,13.67-18.49,6.93-7.03,16.43-16.65,41.28-61,3.53-6.29,2.99-9.15,1.83-13.28l-.04-.14c-.64-2.27-1.86-3.62-3.27-5.18-1.36-1.5-3.05-3.36-5.09-6.89-2.73-4.7-2.59-7.67-2.41-11.77,.08-1.74,.17-3.71,.03-6.03-.43-6.05,1.45-8.12,3.27-10.11,1.05-1.16,2.14-2.35,2.71-4.12,.55-1.7,1.23-2.13,4.39-1.27-2.97,5.84-5.75,11.34-6.66,14.66l2.89,.79c.84-3.07,3.62-8.54,6.56-14.32,1.49-2.93,3.03-5.96,4.37-8.79l.56-1.2c3.26-6.92,4.37-8.98,7.5-8.57-.38,1.09-.69,2.17-.95,3.1l-.21,.76c-.7,2.44-3.12,8.68-5.25,14.19-1.39,3.58-2.7,6.96-3.39,8.94l2.83,1c.68-1.93,1.98-5.29,3.36-8.85,2.26-5.84,4.6-11.88,5.33-14.45l.22-.77c1.54-5.51,2.83-8.17,5.54-7.46,.92,.28,1.2,.67,1.33,.93,.72,1.48-.57,5.2-1.85,8.57-1.25,3.32-3.26,9.05-5.03,14.11-1.54,4.41-3.14,8.97-3.37,9.46l2.57,1.54c.26-.44,.97-2.41,3.63-10.01,1.77-5.04,3.77-10.76,5.01-14.04,.76-2.01,1.35-3.71,1.74-5.18,1.14-.48,1.7-.43,1.85-.31,.74,.59,.59,3.33-.44,8.17-.94,4.42-3.76,14.57-7.71,24.44l2.79,1.11c3.98-9.95,6.85-20.21,7.83-24.79,1.94,.79,1.55,6.41,1.28,8.88-.42,3.78-1.4,7.04-2.35,10.19-1.31,4.35-2.55,8.47-1.9,12.94,1.01,6.96,2.4,16.48-4.03,27.4-1.71,3.1-3.46,7.91-5.3,13Zm21.12-1.23c-6.89-1.41-12.29-3.22-14.84-4.17,.87-2.23,1.71-4.17,2.5-5.61,1.1-1.87,1.97-3.69,2.69-5.49,1.65,.37,3.3,.49,3.55,.51h.14c7.8,0,14.39-3.83,20.2-9.6,3.27,2.9,9.2,5.51,14.65,6.35-2.97,7.26-10.62,18.97-28.89,18.01Z"/><path d="M119.79,68.08l.69,1.88c5.34-1.96,10.79-2.34,16.19-1.14l.43-1.95c-5.78-1.29-11.61-.88-17.31,1.21Z"/><path d="M100.23,121.58c-.51-.2-1.09,.04-1.3,.56-.23,.57-.41,1.06-.58,1.49-1.05,2.76-1.16,3.04-7.21,10.6-.34,.43-.27,1.06,.16,1.41,.18,.15,.41,.22,.62,.22,.29,0,.58-.13,.78-.38,6.07-7.58,6.35-8.08,7.51-11.14,.16-.42,.34-.9,.57-1.46,.21-.51-.04-1.09-.56-1.3Z"/><path d="M142.33,140.92c-9.9,10.44-18.49,9.2-28.44,7.77l-.96-.14c-.54-.08-1.05,.3-1.13,.85-.08,.55,.3,1.05,.85,1.13l.96,.14c3.37,.49,6.67,.96,9.98,.96,6.57,0,13.15-1.89,20.2-9.34,.38-.4,.36-1.03-.04-1.41-.4-.38-1.03-.36-1.41,.04Z"/><path d="M164.3,181.3c-.15-.53-.71-.84-1.24-.69-.53,.15-.84,.71-.69,1.24,.36,1.25,.76,2.36,1.15,3.44,1.55,4.26,3.02,8.28,1.17,20.53-.08,.55,.29,1.06,.84,1.14,.05,0,.1,.01,.15,.01,.49,0,.91-.36,.99-.85,1.92-12.75,.37-17.01-1.27-21.51-.38-1.04-.77-2.12-1.11-3.3Z"/><path d="M34.45,202.08c-8.12,9.42-12.9,17.86-13.46,23.77-.05,.55,.35,1.04,.9,1.09,.03,0,.06,0,.1,0,.51,0,.95-.39,.99-.91,.52-5.5,5.14-13.55,12.99-22.66,.36-.42,.31-1.05-.1-1.41-.42-.36-1.05-.31-1.41,.1Z"/><path d="M129.84,24.28l-1.18-1.61c-8.35,6.13-16.77,6-24.01,5.39l-.17,1.99c1.89,.16,3.86,.28,5.89,.28,6.12,0,12.78-1.15,19.47-6.06Z"/><path d="M115.31,24.87c4.19-.83,7.5-1.49,9.9-3.59l-1.32-1.5c-2,1.75-5.08,2.36-8.97,3.13l-.85,.17,.39,1.96,.85-.17Z"/></svg>